<svg version="1.1" id="Layer_1" xmlns="http://www.w3.org/2000/svg" x="0" y="0" viewBox="0 0 1080 1080" xml:space="preserve"><style>.st0{fill:#bece82}</style><path class="st0" d="M.44 735.66H72.4c25.44 0 43.01 14.89 43.01 35.57 0 14.48-7.24 25.02-19.85 31.64 16.55 7.45 26.06 20.68 26.06 36.4 0 22.75-19.44 38.46-46.53 38.46H.44V735.66zm64.31 57.28c11.37 0 19.43-6.62 19.43-15.72 0-8.89-8.06-15.51-19.43-15.51H30.84v31.22h33.91zm4.76 58.72c12.2 0 20.88-7.24 20.88-17.37s-8.69-17.37-20.88-17.37H30.84v34.74h38.67zm123.41-116h30.6v142.06h-30.6V735.66zm108.93 0h30.4l68.44 91.82v-91.82h30.6v142.06h-30.6l-68.44-91.81v91.81h-30.4V735.66zm208.81 0h50.87c47.77 0 81.68 29.36 81.68 70.93s-33.91 71.13-81.68 71.13h-50.87V735.66zm54.8 114.35c27.09 0 46.32-17.99 46.32-43.43 0-25.23-19.23-43.22-46.32-43.22h-24.4V850h24.4zm149.88-33.71v-80.65h30.4v79.41c0 21.92 14.06 37.43 33.91 37.43 19.64 0 33.71-15.51 33.71-37.43v-79.41h30.6v80.65c0 37.43-26.67 63.9-64.31 63.9-37.84 0-64.31-26.47-64.31-63.9zm183.56-24.81c6.41-5.79 10.76-12.82 12.62-19.43-9.93 0-18.2-8.48-18.2-18.61 0-10.34 8.27-19.03 18.61-19.03 11.58 0 19.64 10.75 19.64 25.85 0 12.2-7.03 25.23-21.92 39.5l-10.75-8.28zm62.82 65.14l17.58-20.88c13.44 11.58 28.74 18.61 46.73 18.61 15.3 0 23.16-7.03 23.16-15.92 0-10.13-8.27-13.23-29.98-18.19-29.99-6.83-51.28-15.3-51.28-42.81 0-26.26 21.5-44.25 52.52-44.25 23.16 0 41.15 7.24 55.63 19.65l-15.92 21.92c-12.61-10.13-26.88-15.72-40.53-15.72-13.03 0-20.88 6.83-20.88 15.3 0 10.34 8.47 13.65 30.4 18.61 30.6 6.83 50.87 15.92 50.87 42.18 0 27.09-20.47 45.08-55.21 45.08-24.63-.01-46.54-8.28-63.09-23.58zM707.31 294.91a8.55 8.55 0 0 0-.13-.73c-.35-2.36-.98-4.63-1.88-6.86-.08-.17-.14-.35-.22-.52-.14-.35-.28-.7-.44-1.04-7.24-15.99-24.82-21.84-24.82-21.84-7.57-2.89-16.44-4.36-26.33-4.36-9.9 0-20.81 1.47-32.41 4.43-11.32 2.88-23.01 7.73-34.58 14.2-.02 0-.02.02-.02.02-11.31 6.32-22.47 14.18-32.92 23.2l-.16.16c-6.2 5.38-12.18 11.15-17.73 17.31-6.66-1.8-13.39-3.57-20.13-5.22h-.02c6.44-23.37 3.35-47.23-7.05-67.3-10.93-21.05-29.88-37.92-54.35-45.66-13.47 42.53 5.3 87.55 42.64 108.66-7.4-1.55-14.82-2.86-22.17-3.91-1.77-.24-3.54-.49-5.31-.7-.09-.02-.21-.03-.3-.05-14.04.6-27.37 4.1-39.34 9.91a100.176 100.176 0 0 0-26.53 18.64c-18.39 17.99-29.92 43.06-30.22 70.88 51.63.57 94.54-37.76 100.91-87.74 18.37 2.69 36.75 7.31 54 12.03a291.24 291.24 0 0 0-13.49 17.71c-.54.71-1.04 1.49-1.57 2.17-3.91 6.07-7.75 12.13-11.46 18.15l-.03.02c-6.61 10.69-12.97 21.28-18.97 31.78-19.53 34.12-34.96 66.58-44.73 94.18l-.13.13s-.28.76-.49 1.9c-.24.62-.65 1.23-.77 1.87-.14.36-.14.74-.25 1.03-4.78 16.25-17.91 69.7 1.64 100.55.73 1.25 1.61 2.62 2.61 3.87.43.36.68.9 1.01 1.23 1.28 1.5 2.77 2.89 4.41 4.27a57.71 57.71 0 0 0 4.13 3.4l3.38 2.37c1.01.65 2.12 1.03 3.27 1.68.13 0 .13.11.25.11h.13c13.9 6.26 34.61 7.26 61.79-1.64 17.54-5.69 35.42-16.43 51.53-30.15.02 0 .02 0 .06-.03 10.42-7.43 19.8-18.07 27.37-28.35.05-.05.08-.11.14-.17v-.03c1.79-2.48 3.51-4.87 5.12-7.19-15.18-1.25-26.53-3.46-36.73-5.77-1.74-.4-3.45-.81-5.14-1.2-.09.14-.22.25-.33.4-12.71 14.86-29.22 26.63-44.86 31.91-8.03 2.58-15.61 3.87-22.37 3.87-7.07 0-13.28-1.44-18.26-4.29l-3.3-2.39c-9.72-7.02-11.72-17.82-5.39-28.84 4.44-7.75 12.6-14.33 21.92-17.68 15.27-4.65 33.66-2.69 51.88.54 2.07.35 4.11.73 6.15 1.12 21.01-24.13 19.54-43.63 19.4-45.02v-.08c-.09-.77-.25-1.53-.44-2.26-1.03-3.64-3.07-6.26-6.31-8.11-2.23-1.34-5.85-2.69-11.43-2.94 0 0-.24-.03-.68-.03-4.38 0-28.89 1.83-60.39 39.64-.05.06-.09.11-.13.17-.32.41-.7.87-1.14 1.36-.05.03-.06.09-.13.14-.81.9-1.8 1.88-2.96 2.74-1.85 1.42-4.13 2.58-6.77 2.86h-.05c-.41 0-.82 0-1.25-.03-.03 0-.08 0-.09-.08-1.22-.05-2.29-.21-3.23-.43-.21-.06-.41-.11-.6-.17-.09-.02-.19-.06-.3-.09-1.45-.47-2.55-1.14-3.34-1.83l-.03-.03c-1.71-1.93-2.07-4.59-1.71-7.08 0-.08.02-.14.03-.22.02-.16.05-.3.06-.46.03-.25.08-.51.14-.76.08-.43.17-.84.28-1.25.13-.4.24-.77.36-1.17.08-.28.17-.55.27-.81.08-.25.17-.51.27-.74.14-.4.3-.76.46-1.09.08-.17.14-.33.22-.49.05-.16.13-.28.19-.43.03-.08.06-.14.09-.19.08-.21.17-.38.25-.54.11-.19.21-.38.25-.49.05-.08.08-.14.11-.17s.03-.06.03-.06c3.21-8.1 8.29-18.83 13.72-29.54.11-.14.19-.22.28-.3 7.45-15.59 15.94-31.39 25.19-47.48 4.93-8.59 9.98-17.16 15.2-25.79 0 0 .05-.09.16-.3.85-1.53 4.71-8.29 11.04-17.8 6.66-10.02 16.1-22.94 27.83-35.89 34.58 9.04 70.52 16.86 100.37 9.72 15.69-4.24 30.55-14.61 38.69-26.93 5.78-8.68 8.09-17.44 7.08-25.59zM476.39 513.34c.03 0 .08-.02.09-.02v.03h-.25c.07 0 .13 0 .16-.01zm215.14-198.69c-12.38 18.71-36.62 34.85-121.59 13.85 10.29-10.29 21.99-20.11 34.77-27.83.92-.55 1.85-1.08 2.77-1.6 20.38-11.78 41.54-19.76 58.69-20.78 0 0 18.93.16 26.3 9.63.02.03.03.08.08.11.9 1.44 1.63 2.85 2.18 4.25 3.66 9.27-.01 17.54-3.2 22.37z"/><path class="st0" d="M474.61 305.43v.02c-1.77-.24-3.54-.49-5.31-.7 1.76.2 3.53.44 5.31.68zm43.77 156.02c-.94.47-1.85.92-2.71 1.37.51-.27 1.44-.77 2.71-1.37zm-41.89 51.87v.03h-.25c.06 0 .13 0 .16-.02.02.01.07-.01.09-.01zm1.93 32.23c-2.04 3.71-3.22 9.23 2.67 14.36 11.59 4.89 36.39-6.5 54.78-24.75-23.67-4.25-48.2-5.76-57.45 10.39z"/><path class="st0" d="M606.73 433.12c-12.45-7.27-28.85-9.15-47.06-6.27-11.57 1.81-23.98 5.94-36.65 12.66a17.47 17.47 0 0 0-6.46 5.85c-2.3 3.55-4.42 7.07-6.32 10.51-2.75 4.74-5.35 9.41-7.77 13.99-.26.49.32.98.77.66 2.26-1.64 6.46-4.5 11.98-7.44 0 0 .16-.1.47-.26.86-.45 1.77-.9 2.71-1.37.24-.12.51-.24.79-.37 6.44-3.08 14.22-5.97 22.59-7.31.08-.02.14-.02.22-.04 9.09-1.59 19.27-1.65 28.48 2.32.24.1.45.2.65.29.37.16.77.33 1.16.55 1.45.73 2.95 1.67 4.42 2.87 4.87 4.01 9.37 10.88 10.23 22.68v.08c-.26 8.43-3.14 19.84-11.41 34.98-1.02 2.14-2.1 4.2-3.2 6.15l-3.06 4.81-.55.86c14 2.04 31.74 4.38 42.36 4.77.02-.02.04-.02.04-.04.06-.12.14-.22.2-.33l.14-.24c.02-.02.02-.04.04-.08.06-.08.1-.16.14-.24 0-.02.02-.02.02-.04 1.39-2.44 2.55-4.52 3.44-6.15.43-.77.82-1.53 1.22-2.32.04-.06.06-.12.08-.18.14-.26.24-.47.33-.67.02-.02.04-.04.06-.08 0 0 0-.02.02-.02v-.02l.02-.02v-.02h.02v-.02l.02-.02v-.02c.02-.04.04-.06.06-.1v-.02c.02-.02.02-.04.04-.06v-.02c.02-.02.02-.02.02-.04 0-.04.02-.08.04-.12.04-.02.04-.1.08-.1v-.02c4.01-8.05 7.44-16.44 10.19-24.45 9.38-31.04-.54-54.1-20.57-65.53zm-120.1 72.81c.39-.53.67-.94.81-1.18-.3.38-.56.77-.81 1.18zm-10.24 7.41c-.03.02-.09.02-.16.02h.25v-.03c-.01-.01-.06.01-.09.01z"/></svg>